G04 #@! TF.GenerationSoftware,KiCad,Pcbnew,9.0.0*
G04 #@! TF.CreationDate,2025-05-15T14:18:08+02:00*
G04 #@! TF.ProjectId,RP2350_80QFN_minimal,52503233-3530-45f3-9830-51464e5f6d69,rev?*
G04 #@! TF.SameCoordinates,Original*
G04 #@! TF.FileFunction,Paste,Top*
G04 #@! TF.FilePolarity,Positive*
%FSLAX46Y46*%
G04 Gerber Fmt 4.6, Leading zero omitted, Abs format (unit mm)*
G04 Created by KiCad (PCBNEW 9.0.0) date 2025-05-15 14:18:08*
%MOMM*%
%LPD*%
G01*
G04 APERTURE LIST*
G04 Aperture macros list*
%AMRoundRect*
0 Rectangle with rounded corners*
0 $1 Rounding radius*
0 $2 $3 $4 $5 $6 $7 $8 $9 X,Y pos of 4 corners*
0 Add a 4 corners polygon primitive as box body*
4,1,4,$2,$3,$4,$5,$6,$7,$8,$9,$2,$3,0*
0 Add four circle primitives for the rounded corners*
1,1,$1+$1,$2,$3*
1,1,$1+$1,$4,$5*
1,1,$1+$1,$6,$7*
1,1,$1+$1,$8,$9*
0 Add four rect primitives between the rounded corners*
20,1,$1+$1,$2,$3,$4,$5,0*
20,1,$1+$1,$4,$5,$6,$7,0*
20,1,$1+$1,$6,$7,$8,$9,0*
20,1,$1+$1,$8,$9,$2,$3,0*%
%AMFreePoly0*
4,1,18,-0.437500,0.050000,-0.433694,0.069134,-0.422855,0.085355,-0.406634,0.096194,-0.387500,0.100000,0.387500,0.100000,0.437500,0.050000,0.437500,-0.050000,0.433694,-0.069134,0.422855,-0.085355,0.406634,-0.096194,0.387500,-0.100000,-0.387500,-0.100000,-0.406634,-0.096194,-0.422855,-0.085355,-0.433694,-0.069134,-0.437500,-0.050000,-0.437500,0.050000,-0.437500,0.050000,$1*%
%AMFreePoly1*
4,1,18,-0.437500,0.050000,-0.433694,0.069134,-0.422855,0.085355,-0.406634,0.096194,-0.387500,0.100000,0.387500,0.100000,0.406634,0.096194,0.422855,0.085355,0.433694,0.069134,0.437500,0.050000,0.437500,-0.050000,0.387500,-0.100000,-0.387500,-0.100000,-0.406634,-0.096194,-0.422855,-0.085355,-0.433694,-0.069134,-0.437500,-0.050000,-0.437500,0.050000,-0.437500,0.050000,$1*%
%AMFreePoly2*
4,1,18,-0.100000,0.387500,-0.050000,0.437500,0.050000,0.437500,0.069134,0.433694,0.085355,0.422855,0.096194,0.406634,0.100000,0.387500,0.100000,-0.387500,0.096194,-0.406634,0.085355,-0.422855,0.069134,-0.433694,0.050000,-0.437500,-0.050000,-0.437500,-0.069134,-0.433694,-0.085355,-0.422855,-0.096194,-0.406634,-0.100000,-0.387500,-0.100000,0.387500,-0.100000,0.387500,$1*%
%AMFreePoly3*
4,1,18,-0.100000,0.387500,-0.096194,0.406634,-0.085355,0.422855,-0.069134,0.433694,-0.050000,0.437500,0.050000,0.437500,0.100000,0.387500,0.100000,-0.387500,0.096194,-0.406634,0.085355,-0.422855,0.069134,-0.433694,0.050000,-0.437500,-0.050000,-0.437500,-0.069134,-0.433694,-0.085355,-0.422855,-0.096194,-0.406634,-0.100000,-0.387500,-0.100000,0.387500,-0.100000,0.387500,$1*%
%AMFreePoly4*
4,1,18,-0.437500,0.050000,-0.433694,0.069134,-0.422855,0.085355,-0.406634,0.096194,-0.387500,0.100000,0.387500,0.100000,0.406634,0.096194,0.422855,0.085355,0.433694,0.069134,0.437500,0.050000,0.437500,-0.050000,0.433694,-0.069134,0.422855,-0.085355,0.406634,-0.096194,0.387500,-0.100000,-0.387500,-0.100000,-0.437500,-0.050000,-0.437500,0.050000,-0.437500,0.050000,$1*%
%AMFreePoly5*
4,1,18,-0.437500,0.050000,-0.387500,0.100000,0.387500,0.100000,0.406634,0.096194,0.422855,0.085355,0.433694,0.069134,0.437500,0.050000,0.437500,-0.050000,0.433694,-0.069134,0.422855,-0.085355,0.406634,-0.096194,0.387500,-0.100000,-0.387500,-0.100000,-0.406634,-0.096194,-0.422855,-0.085355,-0.433694,-0.069134,-0.437500,-0.050000,-0.437500,0.050000,-0.437500,0.050000,$1*%
%AMFreePoly6*
4,1,18,-0.100000,0.387500,-0.096194,0.406634,-0.085355,0.422855,-0.069134,0.433694,-0.050000,0.437500,0.050000,0.437500,0.069134,0.433694,0.085355,0.422855,0.096194,0.406634,0.100000,0.387500,0.100000,-0.387500,0.050000,-0.437500,-0.050000,-0.437500,-0.069134,-0.433694,-0.085355,-0.422855,-0.096194,-0.406634,-0.100000,-0.387500,-0.100000,0.387500,-0.100000,0.387500,$1*%
%AMFreePoly7*
4,1,18,-0.100000,0.387500,-0.096194,0.406634,-0.085355,0.422855,-0.069134,0.433694,-0.050000,0.437500,0.050000,0.437500,0.069134,0.433694,0.085355,0.422855,0.096194,0.406634,0.100000,0.387500,0.100000,-0.387500,0.096194,-0.406634,0.085355,-0.422855,0.069134,-0.433694,0.050000,-0.437500,-0.050000,-0.437500,-0.100000,-0.387500,-0.100000,0.387500,-0.100000,0.387500,$1*%
G04 Aperture macros list end*
%ADD10RoundRect,0.250000X-0.250000X-0.475000X0.250000X-0.475000X0.250000X0.475000X-0.250000X0.475000X0*%
%ADD11RoundRect,0.140000X0.140000X0.170000X-0.140000X0.170000X-0.140000X-0.170000X0.140000X-0.170000X0*%
%ADD12RoundRect,0.135000X-0.185000X0.135000X-0.185000X-0.135000X0.185000X-0.135000X0.185000X0.135000X0*%
%ADD13R,1.500000X2.000000*%
%ADD14R,3.800000X2.000000*%
%ADD15RoundRect,0.150000X-0.650000X-0.150000X0.650000X-0.150000X0.650000X0.150000X-0.650000X0.150000X0*%
%ADD16RoundRect,0.140000X-0.140000X-0.170000X0.140000X-0.170000X0.140000X0.170000X-0.140000X0.170000X0*%
%ADD17RoundRect,0.140000X0.170000X-0.140000X0.170000X0.140000X-0.170000X0.140000X-0.170000X-0.140000X0*%
%ADD18R,1.400000X1.200000*%
%ADD19RoundRect,0.243750X0.243750X0.456250X-0.243750X0.456250X-0.243750X-0.456250X0.243750X-0.456250X0*%
%ADD20RoundRect,0.135000X0.185000X-0.135000X0.185000X0.135000X-0.185000X0.135000X-0.185000X-0.135000X0*%
%ADD21RoundRect,0.150000X0.825000X0.150000X-0.825000X0.150000X-0.825000X-0.150000X0.825000X-0.150000X0*%
%ADD22RoundRect,0.140000X-0.170000X0.140000X-0.170000X-0.140000X0.170000X-0.140000X0.170000X0.140000X0*%
%ADD23RoundRect,0.243750X0.456250X-0.243750X0.456250X0.243750X-0.456250X0.243750X-0.456250X-0.243750X0*%
%ADD24RoundRect,0.250000X0.300000X-0.500000X0.300000X0.500000X-0.300000X0.500000X-0.300000X-0.500000X0*%
%ADD25RoundRect,0.200000X0.200000X0.275000X-0.200000X0.275000X-0.200000X-0.275000X0.200000X-0.275000X0*%
%ADD26R,1.400000X1.000000*%
%ADD27RoundRect,0.135000X0.135000X0.185000X-0.135000X0.185000X-0.135000X-0.185000X0.135000X-0.185000X0*%
%ADD28R,0.470000X0.530000*%
%ADD29R,0.650000X1.050000*%
%ADD30RoundRect,0.135000X-0.135000X-0.185000X0.135000X-0.185000X0.135000X0.185000X-0.135000X0.185000X0*%
%ADD31R,0.700000X1.700000*%
%ADD32RoundRect,0.243750X-0.456250X0.243750X-0.456250X-0.243750X0.456250X-0.243750X0.456250X0.243750X0*%
%ADD33RoundRect,0.218750X0.218750X0.256250X-0.218750X0.256250X-0.218750X-0.256250X0.218750X-0.256250X0*%
%ADD34R,1.050000X0.650000*%
%ADD35RoundRect,0.250000X-0.350000X-0.350000X0.350000X-0.350000X0.350000X0.350000X-0.350000X0.350000X0*%
%ADD36FreePoly0,0.000000*%
%ADD37RoundRect,0.050000X-0.387500X-0.050000X0.387500X-0.050000X0.387500X0.050000X-0.387500X0.050000X0*%
%ADD38FreePoly1,0.000000*%
%ADD39FreePoly2,0.000000*%
%ADD40RoundRect,0.050000X-0.050000X-0.387500X0.050000X-0.387500X0.050000X0.387500X-0.050000X0.387500X0*%
%ADD41FreePoly3,0.000000*%
%ADD42FreePoly4,0.000000*%
%ADD43FreePoly5,0.000000*%
%ADD44FreePoly6,0.000000*%
%ADD45FreePoly7,0.000000*%
%ADD46R,1.200000X1.200000*%
%ADD47R,0.600000X1.450000*%
%ADD48R,0.300000X1.450000*%
%ADD49R,1.500000X1.000000*%
%ADD50R,0.400000X0.350000*%
%ADD51R,0.350000X0.400000*%
%ADD52R,0.400000X1.200000*%
%ADD53RoundRect,0.055000X0.335000X-0.055000X0.335000X0.055000X-0.335000X0.055000X-0.335000X-0.055000X0*%
%ADD54RoundRect,0.055000X-0.055000X-0.335000X0.055000X-0.335000X0.055000X0.335000X-0.055000X0.335000X0*%
%ADD55R,0.133333X0.133333*%
%ADD56RoundRect,0.162500X-0.650000X-0.162500X0.650000X-0.162500X0.650000X0.162500X-0.650000X0.162500X0*%
%ADD57RoundRect,0.250000X-0.475000X0.250000X-0.475000X-0.250000X0.475000X-0.250000X0.475000X0.250000X0*%
G04 APERTURE END LIST*
D10*
X97450000Y-65650000D03*
X99350000Y-65650000D03*
D11*
X80330000Y-77250000D03*
X79370000Y-77250000D03*
X84515000Y-57880000D03*
X83555000Y-57880000D03*
D12*
X80250000Y-56840000D03*
X80250000Y-57860000D03*
D13*
X100750000Y-56550000D03*
X98450000Y-56550000D03*
D14*
X98450000Y-62850000D03*
D13*
X96150000Y-56550000D03*
D15*
X77250000Y-60345000D03*
X77250000Y-61615000D03*
X77250000Y-62885000D03*
X77250000Y-64155000D03*
X84450000Y-64155000D03*
X84450000Y-62885000D03*
X84450000Y-61615000D03*
X84450000Y-60345000D03*
D16*
X88965000Y-85470000D03*
X89925000Y-85470000D03*
D17*
X86850000Y-66730000D03*
X86850000Y-65770000D03*
D16*
X95375000Y-75550000D03*
X96335000Y-75550000D03*
X94870000Y-79750000D03*
X95830000Y-79750000D03*
D12*
X87850000Y-65740000D03*
X87850000Y-66760000D03*
D10*
X97437500Y-53800000D03*
X99337500Y-53800000D03*
D11*
X80330000Y-72150000D03*
X79370000Y-72150000D03*
X86955000Y-85470000D03*
X85995000Y-85470000D03*
D12*
X88850000Y-65740000D03*
X88850000Y-66760000D03*
D16*
X94870000Y-70750000D03*
X95830000Y-70750000D03*
D12*
X88050000Y-82845000D03*
X88050000Y-83865000D03*
D18*
X86750000Y-89900000D03*
X88950000Y-89900000D03*
X88950000Y-88200000D03*
X86750000Y-88200000D03*
D10*
X72000000Y-52150000D03*
X73900000Y-52150000D03*
D19*
X140750000Y-105000000D03*
X138875000Y-105000000D03*
D20*
X141650000Y-56320000D03*
X141650000Y-55300000D03*
D12*
X93050000Y-66190000D03*
X93050000Y-67210000D03*
D21*
X129500000Y-102270000D03*
X129500000Y-101000000D03*
X129500000Y-99730000D03*
X129500000Y-98460000D03*
X129500000Y-97190000D03*
X129500000Y-95920000D03*
X129500000Y-94650000D03*
X129500000Y-93380000D03*
X124550000Y-93380000D03*
X124550000Y-94650000D03*
X124550000Y-95920000D03*
X124550000Y-97190000D03*
X124550000Y-98460000D03*
X124550000Y-99730000D03*
X124550000Y-101000000D03*
X124550000Y-102270000D03*
D22*
X122750000Y-114500000D03*
X122750000Y-115460000D03*
D11*
X138430000Y-74750000D03*
X137470000Y-74750000D03*
D17*
X75950000Y-89045000D03*
X75950000Y-88085000D03*
D23*
X152250000Y-130000000D03*
X152250000Y-128125000D03*
D22*
X122750000Y-102290000D03*
X122750000Y-103250000D03*
X145250000Y-81680000D03*
X145250000Y-82640000D03*
D12*
X134430000Y-56440000D03*
X134430000Y-57460000D03*
X93525000Y-88540000D03*
X93525000Y-89560000D03*
D16*
X144970000Y-84250000D03*
X145930000Y-84250000D03*
D24*
X78300000Y-106900000D03*
X80840000Y-106900000D03*
X83380000Y-106900000D03*
X85920000Y-106900000D03*
X88460000Y-106900000D03*
X91000000Y-106900000D03*
X93540000Y-106900000D03*
X96080000Y-106900000D03*
X96080000Y-98000000D03*
X93540000Y-98000000D03*
X91000000Y-98000000D03*
X88460000Y-98000000D03*
X85920000Y-98000000D03*
X83380000Y-98000000D03*
X80840000Y-98000000D03*
X78300000Y-98000000D03*
D25*
X114025000Y-100025000D03*
X112375000Y-100025000D03*
D12*
X144150000Y-81650000D03*
X144150000Y-82670000D03*
D25*
X114025000Y-105025000D03*
X112375000Y-105025000D03*
D26*
X140700000Y-136000000D03*
X149300000Y-136000000D03*
X140700000Y-140500000D03*
X149300000Y-140500000D03*
D20*
X145550000Y-56310000D03*
X145550000Y-55290000D03*
D27*
X153270000Y-117000000D03*
X152250000Y-117000000D03*
D19*
X140750000Y-125000000D03*
X138875000Y-125000000D03*
X140687500Y-101000000D03*
X138812500Y-101000000D03*
D27*
X153270000Y-113000000D03*
X152250000Y-113000000D03*
D19*
X140750000Y-113000000D03*
X138875000Y-113000000D03*
D26*
X151200000Y-136000000D03*
X159800000Y-136000000D03*
X151200000Y-140500000D03*
X159800000Y-140500000D03*
D19*
X140750000Y-117000000D03*
X138875000Y-117000000D03*
D27*
X147010000Y-126500000D03*
X145990000Y-126500000D03*
D21*
X129500000Y-126770000D03*
X129500000Y-125500000D03*
X129500000Y-124230000D03*
X129500000Y-122960000D03*
X129500000Y-121690000D03*
X129500000Y-120420000D03*
X129500000Y-119150000D03*
X129500000Y-117880000D03*
X124550000Y-117880000D03*
X124550000Y-119150000D03*
X124550000Y-120420000D03*
X124550000Y-121690000D03*
X124550000Y-122960000D03*
X124550000Y-124230000D03*
X124550000Y-125500000D03*
X124550000Y-126770000D03*
D22*
X93050000Y-68070000D03*
X93050000Y-69030000D03*
D28*
X90335000Y-68050000D03*
X91365000Y-68050000D03*
D27*
X137260000Y-97000000D03*
X136240000Y-97000000D03*
D11*
X138430000Y-77350000D03*
X137470000Y-77350000D03*
D27*
X137322500Y-125000000D03*
X136302500Y-125000000D03*
X137322500Y-113000000D03*
X136302500Y-113000000D03*
D19*
X156687500Y-113000000D03*
X154812500Y-113000000D03*
D27*
X137260000Y-101000000D03*
X136240000Y-101000000D03*
D11*
X82530000Y-66950000D03*
X81570000Y-66950000D03*
D22*
X79450000Y-111040000D03*
X79450000Y-112000000D03*
D27*
X155747500Y-80400000D03*
X154727500Y-80400000D03*
D19*
X156687500Y-117000000D03*
X154812500Y-117000000D03*
D11*
X140130000Y-57950000D03*
X139170000Y-57950000D03*
D29*
X80125000Y-48175000D03*
X80125000Y-52325000D03*
X77975000Y-48175000D03*
X77975000Y-52300000D03*
D19*
X156687500Y-109000000D03*
X154812500Y-109000000D03*
D20*
X89850000Y-56500000D03*
X89850000Y-55480000D03*
D16*
X151170000Y-74250000D03*
X152130000Y-74250000D03*
D10*
X151750000Y-56000000D03*
X153650000Y-56000000D03*
D21*
X129475000Y-114445000D03*
X129475000Y-113175000D03*
X129475000Y-111905000D03*
X129475000Y-110635000D03*
X129475000Y-109365000D03*
X129475000Y-108095000D03*
X129475000Y-106825000D03*
X129475000Y-105555000D03*
X124525000Y-105555000D03*
X124525000Y-106825000D03*
X124525000Y-108095000D03*
X124525000Y-109365000D03*
X124525000Y-110635000D03*
X124525000Y-111905000D03*
X124525000Y-113175000D03*
X124525000Y-114445000D03*
D16*
X77020000Y-89065000D03*
X77980000Y-89065000D03*
D30*
X69580000Y-94550000D03*
X70600000Y-94550000D03*
D12*
X78750000Y-56840000D03*
X78750000Y-57860000D03*
D31*
X145850000Y-67950000D03*
X147250000Y-67950000D03*
D28*
X90335000Y-69000000D03*
X91365000Y-69000000D03*
D17*
X142250000Y-68330000D03*
X142250000Y-67370000D03*
D23*
X148250000Y-130000000D03*
X148250000Y-128125000D03*
D32*
X148250000Y-96062500D03*
X148250000Y-97937500D03*
D16*
X150670000Y-72150000D03*
X151630000Y-72150000D03*
D27*
X137322500Y-109000000D03*
X136302500Y-109000000D03*
D19*
X156687500Y-125000000D03*
X154812500Y-125000000D03*
D30*
X75940000Y-57850000D03*
X76960000Y-57850000D03*
D11*
X139630000Y-72050000D03*
X138670000Y-72050000D03*
X70530000Y-95700000D03*
X69570000Y-95700000D03*
D33*
X117075000Y-109525000D03*
X115500000Y-109525000D03*
D27*
X153210000Y-102075000D03*
X152190000Y-102075000D03*
D19*
X140687500Y-97000000D03*
X138812500Y-97000000D03*
D34*
X153287500Y-82100000D03*
X157437500Y-82100000D03*
X153287500Y-84250000D03*
X157412500Y-84250000D03*
D27*
X153270000Y-121000000D03*
X152250000Y-121000000D03*
D16*
X77050000Y-90165000D03*
X78010000Y-90165000D03*
D35*
X143882230Y-74479000D03*
X143882230Y-75879000D03*
X145282230Y-74479000D03*
X145282230Y-75879000D03*
D36*
X141144730Y-72379000D03*
D37*
X141144730Y-72779000D03*
X141144730Y-73179000D03*
X141144730Y-73579000D03*
X141144730Y-73979000D03*
X141144730Y-74379000D03*
X141144730Y-74779000D03*
X141144730Y-75179000D03*
X141144730Y-75579000D03*
X141144730Y-75979000D03*
X141144730Y-76379000D03*
X141144730Y-76779000D03*
X141144730Y-77179000D03*
X141144730Y-77579000D03*
D38*
X141144730Y-77979000D03*
D39*
X141782230Y-78616500D03*
D40*
X142182230Y-78616500D03*
X142582230Y-78616500D03*
X142982230Y-78616500D03*
X143382230Y-78616500D03*
X143782230Y-78616500D03*
X144182230Y-78616500D03*
X144582230Y-78616500D03*
X144982230Y-78616500D03*
X145382230Y-78616500D03*
X145782230Y-78616500D03*
X146182230Y-78616500D03*
X146582230Y-78616500D03*
X146982230Y-78616500D03*
D41*
X147382230Y-78616500D03*
D42*
X148019730Y-77979000D03*
D37*
X148019730Y-77579000D03*
X148019730Y-77179000D03*
X148019730Y-76779000D03*
X148019730Y-76379000D03*
X148019730Y-75979000D03*
X148019730Y-75579000D03*
X148019730Y-75179000D03*
X148019730Y-74779000D03*
X148019730Y-74379000D03*
X148019730Y-73979000D03*
X148019730Y-73579000D03*
X148019730Y-73179000D03*
X148019730Y-72779000D03*
D43*
X148019730Y-72379000D03*
D44*
X147382230Y-71741500D03*
D40*
X146982230Y-71741500D03*
X146582230Y-71741500D03*
X146182230Y-71741500D03*
X145782230Y-71741500D03*
X145382230Y-71741500D03*
X144982230Y-71741500D03*
X144582230Y-71741500D03*
X144182230Y-71741500D03*
X143782230Y-71741500D03*
X143382230Y-71741500D03*
X142982230Y-71741500D03*
X142582230Y-71741500D03*
X142182230Y-71741500D03*
D45*
X141782230Y-71741500D03*
D46*
X147500000Y-58550000D03*
X147500000Y-55750000D03*
D30*
X75940000Y-56450000D03*
X76960000Y-56450000D03*
D26*
X119700000Y-136000000D03*
X128300000Y-136000000D03*
X119700000Y-140500000D03*
X128300000Y-140500000D03*
D30*
X130530000Y-56150000D03*
X131550000Y-56150000D03*
D12*
X136030000Y-56440000D03*
X136030000Y-57460000D03*
D27*
X146760000Y-99000000D03*
X145740000Y-99000000D03*
D22*
X89250000Y-82870000D03*
X89250000Y-83830000D03*
D18*
X142750000Y-88650000D03*
X144950000Y-88650000D03*
X144950000Y-86950000D03*
X142750000Y-86950000D03*
D27*
X143510000Y-126500000D03*
X142490000Y-126500000D03*
D47*
X146800000Y-53545000D03*
X146000000Y-53545000D03*
D48*
X144800000Y-53545000D03*
X143800000Y-53545000D03*
X143300000Y-53545000D03*
X142300000Y-53545000D03*
D47*
X141100000Y-53545000D03*
X140300000Y-53545000D03*
X140300000Y-53545000D03*
X141100000Y-53545000D03*
D48*
X141800000Y-53545000D03*
X142800000Y-53545000D03*
X144300000Y-53545000D03*
X145300000Y-53545000D03*
D47*
X146000000Y-53545000D03*
X146800000Y-53545000D03*
D27*
X150760000Y-99000000D03*
X149740000Y-99000000D03*
D49*
X115750000Y-51700000D03*
X122050000Y-54200000D03*
X115750000Y-56700000D03*
D30*
X130530000Y-57450000D03*
X131550000Y-57450000D03*
D19*
X156687500Y-121000000D03*
X154812500Y-121000000D03*
D50*
X74440000Y-90165000D03*
X74440000Y-90665000D03*
X74440000Y-91165000D03*
X74440000Y-91665000D03*
D51*
X74950000Y-91675000D03*
X75450000Y-91675000D03*
D50*
X75960000Y-91665000D03*
X75960000Y-91165000D03*
X75960000Y-90665000D03*
X75960000Y-90165000D03*
D51*
X75450000Y-90155000D03*
X74950000Y-90155000D03*
D19*
X140750000Y-121000000D03*
X138875000Y-121000000D03*
D27*
X142560000Y-98625000D03*
X141540000Y-98625000D03*
X150760000Y-126500000D03*
X149740000Y-126500000D03*
D12*
X148800000Y-67705000D03*
X148800000Y-68725000D03*
D23*
X144250000Y-130000000D03*
X144250000Y-128125000D03*
D12*
X144250000Y-67340000D03*
X144250000Y-68360000D03*
D47*
X91100000Y-53535000D03*
X90300000Y-53535000D03*
D48*
X89100000Y-53535000D03*
X88100000Y-53535000D03*
X87600000Y-53535000D03*
X86600000Y-53535000D03*
D47*
X85400000Y-53535000D03*
X84600000Y-53535000D03*
X84600000Y-53535000D03*
X85400000Y-53535000D03*
D48*
X86100000Y-53535000D03*
X87100000Y-53535000D03*
X88600000Y-53535000D03*
X89600000Y-53535000D03*
D47*
X90300000Y-53535000D03*
X91100000Y-53535000D03*
D52*
X81250000Y-116250000D03*
X81885000Y-116250000D03*
X82520000Y-116250000D03*
X83155000Y-116250000D03*
X83790000Y-116250000D03*
X84425000Y-116250000D03*
X85060000Y-116250000D03*
X85695000Y-116250000D03*
X86330000Y-116250000D03*
X86965000Y-116250000D03*
X87600000Y-116250000D03*
X88235000Y-116250000D03*
X88235000Y-111050000D03*
X87600000Y-111050000D03*
X86965000Y-111050000D03*
X86330000Y-111050000D03*
X85695000Y-111050000D03*
X85060000Y-111050000D03*
X84425000Y-111050000D03*
X83790000Y-111050000D03*
X83155000Y-111050000D03*
X82520000Y-111050000D03*
X81885000Y-111050000D03*
X81250000Y-111050000D03*
D16*
X151170000Y-75450000D03*
X152130000Y-75450000D03*
D33*
X117075000Y-105025000D03*
X115500000Y-105025000D03*
D35*
X87150000Y-74350000D03*
X87150000Y-75750000D03*
X88550000Y-74350000D03*
X88550000Y-75750000D03*
D53*
X82953500Y-71250000D03*
X82953500Y-71650000D03*
X82953500Y-72050000D03*
X82953500Y-72450000D03*
X82953500Y-72850000D03*
X82953500Y-73250000D03*
X82953500Y-73650000D03*
X82953500Y-74050000D03*
X82953500Y-74450000D03*
X82953500Y-74850000D03*
X82953500Y-75250000D03*
X82953500Y-75650000D03*
X82953500Y-76050000D03*
X82953500Y-76450000D03*
X82953500Y-76850000D03*
X82953500Y-77250000D03*
X82953500Y-77650000D03*
X82953500Y-78050000D03*
X82953500Y-78450000D03*
X82953500Y-78850000D03*
D54*
X84050000Y-79946500D03*
X84450000Y-79946500D03*
X84850000Y-79946500D03*
X85250000Y-79946500D03*
X85650000Y-79946500D03*
X86050000Y-79946500D03*
X86450000Y-79946500D03*
X86850000Y-79946500D03*
X87250000Y-79946500D03*
X87650000Y-79946500D03*
X88050000Y-79946500D03*
X88450000Y-79946500D03*
X88850000Y-79946500D03*
X89250000Y-79946500D03*
X89650000Y-79946500D03*
X90050000Y-79946500D03*
X90450000Y-79946500D03*
X90850000Y-79946500D03*
X91250000Y-79946500D03*
X91650000Y-79946500D03*
D53*
X92746500Y-78850000D03*
X92746500Y-78450000D03*
X92746500Y-78050000D03*
X92746500Y-77650000D03*
X92746500Y-77250000D03*
X92746500Y-76850000D03*
X92746500Y-76450000D03*
X92746500Y-76050000D03*
X92746500Y-75650000D03*
X92746500Y-75250000D03*
X92746500Y-74850000D03*
X92746500Y-74450000D03*
X92746500Y-74050000D03*
X92746500Y-73650000D03*
X92746500Y-73250000D03*
X92746500Y-72850000D03*
X92746500Y-72450000D03*
X92746500Y-72050000D03*
X92746500Y-71650000D03*
X92746500Y-71250000D03*
D54*
X91650000Y-70153500D03*
X91250000Y-70153500D03*
X90850000Y-70153500D03*
X90450000Y-70153500D03*
X90050000Y-70153500D03*
X89650000Y-70153500D03*
X89250000Y-70153500D03*
X88850000Y-70153500D03*
X88450000Y-70153500D03*
X88050000Y-70153500D03*
X87650000Y-70153500D03*
X87250000Y-70153500D03*
X86850000Y-70153500D03*
X86450000Y-70153500D03*
X86050000Y-70153500D03*
X85650000Y-70153500D03*
X85250000Y-70153500D03*
X84850000Y-70153500D03*
X84450000Y-70153500D03*
X84050000Y-70153500D03*
D55*
X86716667Y-73916667D03*
X86716667Y-75050000D03*
X86716667Y-76183333D03*
X87850000Y-73916667D03*
X87850000Y-75050000D03*
X87850000Y-76183333D03*
X88983333Y-73916667D03*
X88983333Y-75050000D03*
X88983333Y-76183333D03*
D19*
X156687500Y-101000000D03*
X154812500Y-101000000D03*
D27*
X137322500Y-117000000D03*
X136302500Y-117000000D03*
D31*
X90150000Y-66400000D03*
X91550000Y-66400000D03*
D10*
X155650000Y-68700000D03*
X157550000Y-68700000D03*
D11*
X80330000Y-74850000D03*
X79370000Y-74850000D03*
D27*
X153260000Y-109000000D03*
X152240000Y-109000000D03*
D33*
X117075000Y-100025000D03*
X115500000Y-100025000D03*
D22*
X148800000Y-69620000D03*
X148800000Y-70580000D03*
D19*
X156750000Y-97000000D03*
X154875000Y-97000000D03*
D22*
X122750000Y-126770000D03*
X122750000Y-127730000D03*
D11*
X142910000Y-84250000D03*
X141950000Y-84250000D03*
D28*
X146035000Y-70550000D03*
X147065000Y-70550000D03*
D19*
X140750000Y-129000000D03*
X138875000Y-129000000D03*
D11*
X83630000Y-81750000D03*
X82670000Y-81750000D03*
D25*
X114025000Y-109525000D03*
X112375000Y-109525000D03*
D27*
X153260000Y-105000000D03*
X152240000Y-105000000D03*
D19*
X156687500Y-129000000D03*
X154812500Y-129000000D03*
D27*
X153760000Y-131750000D03*
X152740000Y-131750000D03*
D32*
X144250000Y-96062500D03*
X144250000Y-97937500D03*
D28*
X146035000Y-69600000D03*
X147065000Y-69600000D03*
D26*
X130200000Y-136000000D03*
X138800000Y-136000000D03*
X130200000Y-140500000D03*
X138800000Y-140500000D03*
D29*
X95075000Y-91025000D03*
X95075000Y-86875000D03*
X97225000Y-91025000D03*
X97225000Y-86900000D03*
D56*
X131862500Y-60245000D03*
X131862500Y-61515000D03*
X131862500Y-62785000D03*
X131862500Y-64055000D03*
X139037500Y-64055000D03*
X139037500Y-62785000D03*
X139037500Y-61515000D03*
X139037500Y-60245000D03*
D27*
X137322500Y-105000000D03*
X136302500Y-105000000D03*
X137322500Y-121000000D03*
X136302500Y-121000000D03*
D30*
X69580000Y-93400000D03*
X70600000Y-93400000D03*
D16*
X95370000Y-74550000D03*
X96330000Y-74550000D03*
D46*
X91800000Y-58540000D03*
X91800000Y-55740000D03*
D32*
X152250000Y-96062500D03*
X152250000Y-97937500D03*
D12*
X143250000Y-67340000D03*
X143250000Y-68360000D03*
D19*
X156687500Y-105000000D03*
X154812500Y-105000000D03*
D27*
X154235000Y-99225000D03*
X153215000Y-99225000D03*
D19*
X140750000Y-109000000D03*
X138875000Y-109000000D03*
D13*
X155200000Y-58750000D03*
X152900000Y-58750000D03*
D14*
X152900000Y-65050000D03*
D13*
X150600000Y-58750000D03*
D20*
X86250000Y-56490000D03*
X86250000Y-55470000D03*
D22*
X142650000Y-81680000D03*
X142650000Y-82640000D03*
D16*
X148670000Y-80250000D03*
X149630000Y-80250000D03*
D29*
X135525000Y-47875000D03*
X135525000Y-52025000D03*
X133375000Y-47875000D03*
X133375000Y-52000000D03*
D27*
X153270000Y-125000000D03*
X152250000Y-125000000D03*
D57*
X131250000Y-49700000D03*
X131250000Y-51600000D03*
D22*
X86550000Y-82870000D03*
X86550000Y-83830000D03*
D27*
X137322500Y-129000000D03*
X136302500Y-129000000D03*
M02*
