M48
; DRILL file {KiCad 9.0.0} date 2025-05-15T14:18:10+0200
; FORMAT={-:-/ absolute / inch / decimal}
; #@! TF.CreationDate,2025-05-15T14:18:10+02:00
; #@! TF.GenerationSoftware,Kicad,Pcbnew,9.0.0
; #@! TF.FileFunction,Plated,1,2,PTH
FMAT,2
INCH
; #@! TA.AperFunction,Plated,PTH,ViaDrill
T1C0.0098
; #@! TA.AperFunction,Plated,PTH,ComponentDrill
T2C0.0098
; #@! TA.AperFunction,Plated,PTH,ViaDrill
T3C0.0138
; #@! TA.AperFunction,Plated,PTH,ComponentDrill
T4C0.0236
; #@! TA.AperFunction,Plated,PTH,ComponentDrill
T5C0.0394
%
G90
G05
T1
X2.8937Y-2.2992
X2.9114Y-2.002
X3.0413Y-2.561
X3.065Y-2.25
X3.0925Y-2.439
X3.0925Y-2.4902
X3.0957Y-2.9469
X3.0959Y-2.8406
X3.0965Y-3.0413
X3.1004Y-2.2067
X3.1545Y-1.9734
X3.1831Y-2.6358
X3.1909Y-2.9469
X3.2244Y-3.2441
X3.2256Y-1.9705
X3.2579Y-2.2776
X3.2736Y-2.4114
X3.2736Y-2.4626
X3.2736Y-2.5138
X3.3524Y-3.4744
X3.3563Y-3.365
X3.372Y-2.9469
X3.376Y-3.3012
X3.3957Y-2.2555
X3.4193Y-2.561
X3.4902Y-3.0453
X3.4902Y-3.239
X3.5256Y-2.6713
X3.5256Y-2.6949
X3.5256Y-2.8681
X3.5374Y-2.2555
X3.5453Y-3.302
X3.5492Y-2.9469
X3.565Y-3.5374
X3.5689Y-3.365
X3.6201Y-2.6811
X3.6201Y-2.7047
X3.6476Y-2.7461
X3.6821Y-3.5571
X3.6927Y-1.9694
X3.7264Y-2.9469
X3.8018Y-3.1398
X3.8051Y-2.7657
X3.8217Y-2.935
X3.8217Y-2.9744
X3.9528Y-2.1575
X3.9557Y-2.5846
X5.4866Y-2.941
X5.561Y-3.3169
X5.561Y-3.4264
X5.6068Y-2.9291
X5.6992Y-3.189
X5.6993Y-3.0452
X5.7106Y-2.7539
X5.711Y-2.7323
X5.711Y-2.8748
X5.7697Y-3.4894
X5.7736Y-3.3169
X5.778Y-2.9449
X5.813Y-2.7421
X5.813Y-2.7657
X5.8445Y-2.8091
X5.9197Y-2.9449
T2
X3.414Y-2.9101
X3.414Y-2.9547
X3.414Y-2.9993
X3.4587Y-2.9101
X3.4587Y-2.9547
X3.4587Y-2.9993
X3.5033Y-2.9101
X3.5033Y-2.9547
X3.5033Y-2.9993
X5.6381Y-2.9057
X5.6381Y-2.9598
X5.6381Y-3.0139
X5.6922Y-2.9057
X5.6922Y-2.9598
X5.6922Y-3.0139
X5.7463Y-2.9057
X5.7463Y-2.9598
X5.7463Y-3.0139
T3
X2.6191Y-3.7303
X2.6437Y-3.7598
X2.6693Y-3.7815
X2.7047Y-3.7677
X2.8012Y-3.874
X2.815Y-3.7224
X2.8429Y-3.6476
X2.8874Y-3.7224
X2.9193Y-3.2697
X2.9193Y-3.4843
X2.9311Y-3.6457
X2.9311Y-3.8248
X2.9508Y-3.2854
X2.9508Y-3.4803
X2.9636Y-3.938
X2.9656Y-4.0059
X2.9803Y-3.9695
X2.9902Y-3.4337
X2.9902Y-3.6437
X3.0492Y-3.372
X3.0492Y-3.6063
X3.0965Y-4.4104
X3.1043Y-3.2894
X3.1043Y-3.5498
X3.1339Y-4.2087
X3.1807Y-4.6272
X3.2028Y-3.2894
X3.2146Y-2.6969
X3.2343Y-4.2087
X3.2589Y-2.6978
X3.2738Y-4.4331
X3.2756Y-4.7323
X3.3002Y-4.6282
X3.3238Y-4.439
X3.3327Y-4.2087
X3.3988Y-4.4488
X3.4341Y-4.2087
X3.5315Y-5.1102
X3.5315Y-5.2402
X3.5335Y-4.2087
X3.6319Y-4.2087
X3.6378Y-4.6811
X3.6417Y-5.3504
X3.6752Y-3.3209
X3.6909Y-3.372
X3.6949Y-5.2776
X3.6969Y-4.7717
X3.6969Y-5.0276
X3.6969Y-5.185
X3.7343Y-4.2087
X3.8071Y-5.3386
X3.9016Y-3.938
X3.9026Y-3.9705
X3.9035Y-4.0059
X3.9301Y-3.8514
X4.0689Y-3.1594
X4.2224Y-3.1594
X4.2372Y-3.8514
X4.2461Y-3.0059
X4.2795Y-2.9744
X4.2913Y-3.1929
X4.3819Y-4.313
X4.3829Y-3.938
X4.3839Y-4.1339
X4.3868Y-2.9075
X4.405Y-3.1629
X4.4213Y-3.2795
X4.4921Y-3.4941
X4.5581Y-3.4281
X4.5906Y-3.562
X4.5906Y-3.7234
X4.64Y-3.1557
X4.6516Y-4.1348
X4.6516Y-4.312
X4.6521Y-3.938
X4.6742Y-4.4695
X4.6742Y-4.5856
X4.6762Y-3.2165
X4.7047Y-4.44
X4.7047Y-4.6053
X4.7411Y-4.6969
X4.7421Y-4.3632
X4.7805Y-4.7756
X4.7943Y-3.8764
X4.7943Y-4.251
X4.813Y-4.3553
X4.8297Y-3.6781
X4.8327Y-4.1014
X4.8327Y-4.5797
X4.8327Y-5.061
X4.8406Y-4.3051
X4.8858Y-5.5374
X4.9596Y-4.4557
X4.9656Y-3.7539
X4.9656Y-4.0915
X5.0089Y-3.9478
X5.0089Y-4.0994
X5.0177Y-4.9409
X5.076Y-2.2311
X5.1122Y-2.1339
X5.1624Y-4.6417
X5.1632Y-4.2557
X5.1671Y-4.1557
X5.1673Y-2.0728
X5.1673Y-3.6764
X5.1703Y-4.2057
X5.1909Y-2.56
X5.1949Y-4.9419
X5.211Y-4.8409
X5.2126Y-3.0571
X5.2126Y-4.7136
X5.2146Y-4.7559
X5.2156Y-4.8031
X5.2254Y-5.0984
X5.2313Y-4.9862
X5.2421Y-4.6309
X5.247Y-4.4055
X5.2657Y-3.0165
X5.2667Y-4.9193
X5.2677Y-4.6919
X5.2766Y-4.3238
X5.2835Y-5.0482
X5.2854Y-2.9843
X5.2933Y-2.1909
X5.2953Y-5.5315
X5.3278Y-4.2913
X5.3278Y-4.8268
X5.3287Y-3.9764
X5.3297Y-4.4488
X5.3356Y-1.9705
X5.3622Y-4.8691
X5.376Y-2.9429
X5.3799Y-3.0453
X5.4006Y-4.685
X5.4232Y-1.9724
X5.4232Y-2.8366
X5.4301Y-4.7077
X5.4469Y-2.2815
X5.5394Y-3.7618
X5.5768Y-2.248
X5.5846Y-3.2539
X5.5906Y-3.9764
X5.593Y-4.1339
X5.593Y-4.2913
X5.593Y-4.4488
X5.593Y-4.6063
X5.593Y-4.7638
X5.593Y-4.9213
X5.593Y-5.0787
X5.6004Y-2.6201
X5.6604Y-4.939
X5.6791Y-3.7345
X5.6791Y-5.1634
X5.7047Y-4.9803
X5.7087Y-5.5315
X5.7303Y-2.248
X5.7441Y-2.3051
X5.75Y-3.2539
X5.8366Y-5.1634
X5.8376Y-3.7345
X5.8839Y-1.9724
X5.9272Y-3.1594
X5.939Y-5.1191
X5.9941Y-3.7365
X5.998Y-2.8406
X6.0228Y-2.9709
X6.0236Y-2.9232
X6.0586Y-3.1654
X6.0984Y-2.2402
X6.126Y-5.5335
X6.2146Y-3.9764
X6.2146Y-4.1339
X6.2146Y-4.2913
X6.2153Y-4.4488
X6.2153Y-4.6063
X6.2156Y-4.9213
X6.2156Y-5.0787
X6.2163Y-4.7638
X6.2192Y-3.8189
X6.2441Y-2.7047
T5
X2.5102Y-1.9291
X2.5102Y-2.0291
X2.5102Y-2.1291
X2.5102Y-2.2291
X2.5102Y-2.3291
X2.5102Y-2.4291
X2.5102Y-2.5291
X2.5102Y-2.6291
X2.5102Y-2.7291
X2.5102Y-2.8291
X2.5102Y-2.9291
X2.5102Y-3.0291
X2.5102Y-3.1291
X2.5102Y-3.2291
X2.6102Y-1.9291
X2.6102Y-2.0291
X2.6102Y-2.1291
X2.6102Y-2.2291
X2.6102Y-2.3291
X2.6102Y-2.4291
X2.6102Y-2.5291
X2.6102Y-2.6291
X2.6102Y-2.7291
X2.6102Y-2.8291
X2.6102Y-2.9291
X2.6102Y-3.0291
X2.6102Y-3.1291
X2.6102Y-3.2291
X3.3858Y-4.8331
X3.3858Y-5.4331
X3.4858Y-4.8331
X3.4858Y-5.4331
X3.5858Y-4.8331
X3.5858Y-5.4331
X3.6858Y-4.8331
X3.6858Y-5.4331
X3.7858Y-4.8331
X3.7858Y-5.4331
X3.8858Y-4.8331
X3.8858Y-5.4331
X4.311Y-2.0079
X4.311Y-2.1079
X4.311Y-2.2079
X4.311Y-2.3079
X4.311Y-2.4079
X4.311Y-2.5079
X4.311Y-2.6079
X4.311Y-2.7079
X4.311Y-2.8079
X4.411Y-2.0079
X4.411Y-2.1079
X4.411Y-2.2079
X4.411Y-2.3079
X4.411Y-2.4079
X4.411Y-2.5079
X4.411Y-2.6079
X4.411Y-2.7079
X4.411Y-2.8079
X5.0846Y-2.8165
X5.0846Y-2.9165
X5.0846Y-3.0165
X5.0846Y-3.1165
X5.0846Y-3.2165
X5.9783Y-3.4902
X6.0783Y-3.4902
X6.1783Y-3.4902
T4
G00X3.2886Y-1.9189
M15
G01X3.2886Y-1.8953
M16
G05
G00X3.2886Y-2.0933
M15
G01X3.2886Y-2.05
M16
G05
G00X3.6287Y-1.9189
M15
G01X3.6287Y-1.8953
M16
G05
G00X3.6287Y-2.0933
M15
G01X3.6287Y-2.05
M16
G05
G00X5.4815Y-1.9193
M15
G01X5.4815Y-1.8957
M16
G05
G00X5.4815Y-2.0937
M15
G01X5.4815Y-2.0504
M16
G05
G00X5.8217Y-1.9193
M15
G01X5.8217Y-1.8957
M16
G05
G00X5.8217Y-2.0937
M15
G01X5.8217Y-2.0504
M16
G05
M30
